<?xml version="1.0" encoding="utf-8"?>
<!-- Generator: Adobe Illustrator 21.0.2, SVG Export Plug-In . SVG Version: 6.00 Build 0)  -->
<svg version="1.1" id="Layer_1" xmlns="http://www.w3.org/2000/svg" xmlns:xlink="http://www.w3.org/1999/xlink" x="0px" y="0px"
	 viewBox="0 0 20 30" style="enable-background:new 0 0 20 30;" xml:space="preserve">
<style type="text/css">
	.st0{fill:#004A80;}
	.st1{fill:none;}
</style>
<g>
	<path class="st0" d="M7.4,15.4c-0.2,0.6,0.1,1.1,0.4,1.3c0.5,0.3,1.1,0.7,1.8,0.8c2.7,0.6,5.3,0.2,7.8-0.7c0.7-0.2,1.3-0.7,2-1.1
		c0.5-0.3,0.8-0.9,0.6-1.5c-0.2-0.9-0.9-1.4-1.7-1.8c0,0.2-0.1,0.3-0.1,0.4c-0.1,1.4-0.8,2.5-1.9,3.2c-2.2,1.4-4.5,1.9-7,1.2
		C8.4,16.9,7.6,16.5,7.4,15.4z M18.6,17.4C18.5,17.4,18.5,17.4,18.6,17.4c-0.2,0-0.4,0-0.5,0.1c-2.1,0.7-4.2,0.9-6.4,0.8
		c-1.5,0-2.8-0.3-4.2-0.9c-1.6-0.7-1.9-2.2-0.3-3c0,0,0,0,0-0.1c-0.4,0.3-0.8,0.5-1.1,0.7c-0.6,0.5-0.7,1.2-0.1,1.8
		c0.4,0.4,0.8,0.9,1.3,1.1c2.4,1.4,5.1,1.9,7.9,1.5C16.5,19.1,17.7,18.6,18.6,17.4z M9.7,10.1c0.2,0.1,0.4,0.1,0.6,0.2
		c1.6,0.6,3.2,1.1,4.4,2.5c0.9,1,0.7,2.4-0.4,3.2c-0.3,0.2-0.7,0.4-1.1,0.5c-1,0.2-2,0.3-2.7,0.4c1.3,0.2,3,0.1,4.5-0.8
		c1.5-0.9,2.1-2.4,1.6-3.7c-0.4-1-1.2-1.4-2.1-1.8C13,9.9,11.4,9.9,9.7,10.1z"/>
	<path class="st0" d="M12.6,14.5c0.1,0,0.1-0.1,0.2-0.1c-0.1-0.3-0.2-0.6-0.3-0.8c-0.6-0.7-1.4-1-2.3-1.2c-2.8-0.5-5.5-0.1-8.2,1
		c-0.5,0.2-0.9,0.5-1.4,0.8c-0.5,0.4-0.8,1-0.6,1.7c0.3,0.8,1,1.2,1.6,1.7c0.1-0.1,0.1-0.1,0.1-0.2c0-0.1,0-0.2,0-0.4
		c0-0.9,0.3-1.6,0.9-2.3c1.8-2,5.8-2.9,8.3-1.9C11.8,13.3,12.4,13.7,12.6,14.5z M10.1,19.9c-0.6-0.2-1.2-0.4-1.8-0.6
		c-1.2-0.4-2.2-1-3.1-2c-1.1-1.2-0.8-2.7,0.7-3.4c1.4-0.7,2.9-0.8,4.4-0.4c-1.4-0.5-3.5-0.4-5,0.3c-0.8,0.4-1.5,1-1.9,1.8
		c-0.6,1.1-0.3,2.3,0.6,3.1C5.9,20.2,8,20.1,10.1,19.9z M13.1,15.6c1.5-0.6,1.7-1.7,0.6-2.7c-0.1-0.1-0.2-0.2-0.3-0.3
		c-2.7-1.9-5.8-2.5-9-1.9c-1.2,0.2-2.2,0.8-3.1,1.9c0.3-0.1,0.4-0.1,0.6-0.1c2.1-0.6,4.2-0.9,6.3-0.8c1.6,0.1,3.1,0.3,4.5,1.1
		C14.1,13.5,14.2,14.4,13.1,15.6z"/>
	<path class="st0" d="M7.4,15.4c0.2,1.1,1,1.5,1.9,1.8c2.5,0.7,4.8,0.2,7-1.2c1.2-0.7,1.8-1.8,1.9-3.2c0-0.1,0-0.2,0.1-0.4
		c0.8,0.5,1.5,1,1.7,1.8c0.2,0.6-0.1,1.2-0.6,1.5c-0.6,0.4-1.3,0.8-2,1.1c-2.5,0.9-5.1,1.3-7.8,0.7c-0.6-0.1-1.2-0.5-1.8-0.8
		C7.4,16.4,7.1,16,7.4,15.4z"/>
	<path class="st0" d="M18.6,17.4c-0.9,1.1-2.1,1.7-3.5,1.9c-2.8,0.4-5.4-0.1-7.9-1.5c-0.5-0.3-1-0.7-1.3-1.1
		c-0.5-0.6-0.5-1.3,0.1-1.8c0.3-0.3,0.7-0.5,1.1-0.7c0,0.1,0,0.1,0,0.1c-1.5,0.9-1.3,2.3,0.3,3c1.3,0.6,2.7,0.9,4.2,0.9
		c2.2,0.1,4.3-0.1,6.4-0.8C18.2,17.4,18.4,17.4,18.6,17.4C18.5,17.4,18.5,17.4,18.6,17.4z"/>
	<path class="st0" d="M9.7,10.1c1.6-0.1,3.2-0.2,4.8,0.4c0.9,0.3,1.7,0.8,2.1,1.8c0.5,1.3-0.1,2.8-1.6,3.7c-1.5,0.9-3.1,1-4.5,0.8
		c0.7-0.1,1.7-0.2,2.7-0.4c0.4-0.1,0.7-0.3,1.1-0.5c1.2-0.7,1.3-2.1,0.4-3.2c-1.2-1.4-2.8-2-4.4-2.5C10.2,10.2,9.9,10.1,9.7,10.1z"
		/>
	<path class="st0" d="M12.6,14.5c-0.2-0.8-0.9-1.2-1.6-1.5c-2.5-1-6.5-0.1-8.3,1.9c-0.6,0.7-0.9,1.4-0.9,2.3c0,0.1,0,0.2,0,0.4
		c0,0,0,0.1-0.1,0.2c-0.6-0.5-1.3-0.9-1.6-1.7c-0.2-0.7,0-1.3,0.6-1.7c0.4-0.3,0.9-0.6,1.4-0.8c2.6-1,5.4-1.5,8.2-1
		c0.9,0.2,1.7,0.4,2.3,1.2c0.2,0.2,0.2,0.5,0.3,0.8C12.7,14.5,12.7,14.5,12.6,14.5z"/>
	<path class="st0" d="M10.1,19.9c-2.1,0.1-4.2,0.2-6-1.2c-1-0.8-1.2-2-0.6-3.1c0.4-0.8,1.1-1.4,1.9-1.8c1.5-0.7,3.6-0.8,5-0.3
		c-1.5-0.4-3-0.3-4.4,0.4c-1.5,0.7-1.7,2.2-0.7,3.4c0.8,1,1.9,1.5,3.1,2C8.9,19.5,9.5,19.7,10.1,19.9z"/>
	<path class="st0" d="M13.1,15.6c1.1-1.2,1-2.1-0.4-2.9c-1.4-0.8-2.9-1-4.5-1.1c-2.2-0.1-4.3,0.2-6.3,0.8c-0.1,0-0.3,0.1-0.6,0.1
		c0.9-1.1,1.9-1.7,3.1-1.9c3.2-0.6,6.3-0.1,9,1.9c0.1,0.1,0.2,0.2,0.3,0.3C14.8,13.9,14.6,15,13.1,15.6z"/>
</g>
<rect class="st1" width="20" height="30"/>
</svg>
